<svg width="586" height="463" viewBox="0 0 586 463" fill="none" xmlns="http://www.w3.org/2000/svg">
<g clip-path="url(#clip0_65_257)">
<path d="M179.163 359.352V351.764H201.103V460.268H179.163V446.686C168.611 457.536 156.388 463 142.495 463C125.946 463 111.749 457.157 100.058 445.472C88.3668 433.787 82.5212 419.674 82.5212 403.057C82.5212 386.516 88.3668 372.327 100.058 360.642C111.749 348.957 125.87 343.114 142.495 343.114C156.388 343.114 168.611 348.502 179.163 359.352ZM179.163 411.024V395.014C177.872 388.185 174.532 382.039 169.066 376.5C161.702 369.216 152.82 365.574 142.495 365.574C132.095 365.574 123.213 369.216 115.849 376.5C108.485 383.784 104.841 392.662 104.841 403.057C104.841 413.376 108.485 422.178 115.849 429.538C123.213 436.898 132.095 440.54 142.495 440.54C152.82 440.54 161.702 436.898 169.066 429.614C174.532 423.999 177.872 417.853 179.163 411.024Z" fill="white" fill-opacity="0.31"/>
<path d="M278.765 461.634C265.1 461.634 254.017 457.461 245.666 449.115C237.315 440.768 232.988 430.297 232.836 417.702V351.765H254.776V416.867C254.776 423.089 257.053 428.476 261.608 432.953C266.163 437.43 271.857 439.706 278.69 439.706C284.915 439.706 290.381 437.505 295.012 433.029C299.643 428.552 301.92 423.165 301.92 416.867V351.765H323.708V417.702C323.48 430.297 319.229 440.768 310.954 449.115C302.527 457.461 291.823 461.634 278.765 461.634Z" fill="white" fill-opacity="0.31"/>
<path d="M368.499 351.765V311.095H390.287V351.765H409.797V373.541H390.287V460.117H368.499V373.541H348.988V351.765H368.499Z" fill="white" fill-opacity="0.31"/>
<path d="M488.827 342.887C505.376 342.887 519.573 348.729 531.264 360.49C542.955 372.251 548.801 386.364 548.801 402.981C548.801 419.522 542.955 433.711 531.264 445.396C519.573 457.157 505.452 463 488.827 463C472.277 463 458.156 457.157 446.465 445.396C434.698 433.635 428.853 419.522 428.853 402.981C428.853 386.44 434.698 372.251 446.465 360.49C458.156 348.729 472.277 342.887 488.827 342.887ZM462.18 376.348C454.816 383.708 451.172 392.586 451.172 402.905C451.172 413.3 454.816 422.178 462.18 429.462C469.544 436.746 478.426 440.388 488.827 440.388C499.227 440.388 508.109 436.746 515.473 429.462C522.837 422.178 526.481 413.3 526.481 402.905C526.481 392.586 522.837 383.708 515.473 376.348C508.109 368.988 499.227 365.27 488.827 365.27C478.426 365.346 469.544 368.988 462.18 376.348Z" fill="white" fill-opacity="0.31"/>
<path d="M294.253 176.262C308.677 171.481 323.253 166.094 337.905 160.328V46.5883C337.905 31.1853 340.258 21.1696 344.965 16.617C349.672 11.9885 359.92 9.10521 375.711 8.04294V0H256.522V7.96706C272.465 9.10521 282.789 11.9885 287.344 16.5411C291.975 21.1696 294.253 31.1853 294.253 46.5125V141.51H228.888V156.685H294.253V176.262Z" fill="white" fill-opacity="0.31"/>
<path d="M337.905 237.722V188.478C323.253 195.306 308.677 201.604 294.252 207.523V232.638C294.252 251.152 292.203 262.609 288.027 267.086C283.928 271.563 273.375 274.598 256.446 276.267V284.234H375.635V276.267C359.844 274.901 349.596 272.018 344.889 267.617C340.258 263.292 337.905 253.276 337.905 237.722Z" fill="white" fill-opacity="0.31"/>
<path d="M512.133 237.722V87.7891C497.861 97.8048 483.285 107.593 468.481 116.926V141.51H427.79C419.135 146.518 410.405 151.45 401.599 156.23V156.685H468.405V232.562C468.405 251.076 466.355 262.533 462.18 267.01C458.081 271.487 447.528 274.522 430.599 276.191V284.158H549.788V276.191C533.997 274.825 523.748 271.942 519.042 267.541C514.487 263.292 512.133 253.276 512.133 237.722Z" fill="white" fill-opacity="0.31"/>
<path d="M468.481 46.5883V96.8187C483.361 88.0929 498.013 79.0636 512.133 69.6549V46.5883C512.133 31.1853 514.486 21.1696 519.193 16.617C523.824 11.9885 534.073 9.10521 549.94 7.96706V0H430.75V7.96706C446.693 9.10521 457.018 11.9885 461.573 16.5411C466.204 21.1696 468.481 31.1853 468.481 46.5883Z" fill="white" fill-opacity="0.31"/>
<path d="M113.419 16.4653L113.116 16.6929C117.746 21.3972 120.024 31.3371 120.024 46.5883V206.309C124.883 206.612 129.893 206.764 135.131 206.764C144.241 206.764 153.883 206.233 163.676 205.398V46.5883C163.676 31.1853 166.029 21.1696 170.812 16.617C175.519 11.9885 185.768 9.10521 201.482 8.04294V0H82.2935V7.96706C97.9323 9.10521 108.105 11.9127 112.888 16.4653H113.419Z" fill="white" fill-opacity="0.31"/>
<path d="M164.132 248.269C148.189 251.455 132.93 253.656 118.506 254.87C117.443 260.712 115.849 264.81 113.723 267.01C109.547 271.411 98.9951 274.522 82.2175 276.267V284.234H201.407V276.267C185.692 275.053 175.443 272.17 170.736 267.693C167.244 264.43 165.043 257.905 164.132 248.269Z" fill="white" fill-opacity="0.31"/>
<path d="M585.772 22.6875C459.447 129.218 263.279 212.986 135.131 212.986C6.98424 212.986 -6.9085 129.218 98.6914 22.6875H98.4637C-30.5945 149.478 -33.9348 249.635 95.2752 249.635C224.409 249.635 439.101 149.478 586 22.6875H585.772Z" fill="white" fill-opacity="0.3"/>
</g>
<defs>
<clipPath id="clip0_65_257">
<rect width="586" height="463" fill="white"/>
</clipPath>
</defs>
</svg>
